HIERARCHY
ROOT Hips
{
	OFFSET 0.000000 0.000000 0.000000 
	CHANNELS 6 Xposition Yposition Zposition Zrotation Yrotation Xrotation
	JOINT LeftUpLeg
	{
		OFFSET 1.363060 -1.794630 0.839290 
		CHANNELS 3 Zrotation Yrotation Xrotation
		JOINT LeftLeg
		{
			OFFSET 2.448110 -6.726130 0.000000 
			CHANNELS 3 Zrotation Yrotation Xrotation
			JOINT LeftFoot
			{
				OFFSET 2.562200 -7.039590 0.000000 
				CHANNELS 3 Zrotation Yrotation Xrotation
				JOINT LeftToeBase
				{
					OFFSET 0.157640 -0.433110 2.322550 
					CHANNELS 3 Zrotation Yrotation Xrotation
					End Site
					{
						OFFSET 0.000000 0.000000 0.000000 
					}
				}
			}
		}
	}
	JOINT RightUpLeg
	{
		OFFSET -1.305520 -1.794630 0.839290 
		CHANNELS 3 Zrotation Yrotation Xrotation
		JOINT RightLeg
		{
			OFFSET -2.542530 -6.985550 0.000000 
			CHANNELS 3 Zrotation Yrotation Xrotation
			JOINT RightFoot
			{
				OFFSET -2.568260 -7.056230 0.000000 
				CHANNELS 3 Zrotation Yrotation Xrotation
				JOINT RightToeBase
				{
					OFFSET -0.164730 -0.452590 2.363150 
					CHANNELS 3 Zrotation Yrotation Xrotation
					End Site
					{
						OFFSET 0.000000 0.000000 0.000000 
					}
				}
			}
		}
	}
	JOINT Spine
	{
		OFFSET 0.028270 2.035590 -0.193380 
		CHANNELS 3 Zrotation Yrotation Xrotation
		JOINT Spine1
		{
			OFFSET 0.056720 2.048850 -0.042750 
			CHANNELS 3 Zrotation Yrotation Xrotation
			JOINT Neck1
			{
				OFFSET -0.054170 1.746240 0.172020 
				CHANNELS 3 Zrotation Yrotation Xrotation
				JOINT Head
				{
					OFFSET 0.104070 1.761360 -0.123970 
					CHANNELS 3 Zrotation Yrotation Xrotation
					End Site
					{
						OFFSET 0.000000 0.000000 0.000000 
					}
				}
			}
			JOINT LeftArm
			{
				OFFSET 3.362410 1.200890 -0.311210 
				CHANNELS 3 Zrotation Yrotation Xrotation
				JOINT LeftForeArm
				{
					OFFSET 4.983000 -0.000000 -0.000000 
					CHANNELS 3 Zrotation Yrotation Xrotation
					JOINT LeftHand
					{
						OFFSET 3.483560 -0.000000 -0.000000 
						CHANNELS 3 Zrotation Yrotation Xrotation
						JOINT LeftHandIndex1
						{
							OFFSET 0.715260 -0.000000 -0.000000 
							CHANNELS 3 Zrotation Yrotation Xrotation
							End Site
							{
								OFFSET 0.000000 0.000000 0.000000 
							}
						}
					}
				}
			}
			JOINT RightArm
			{
				OFFSET -3.136600 1.374050 -0.404650 
				CHANNELS 3 Zrotation Yrotation Xrotation
				JOINT RightForeArm
				{
					OFFSET -5.241900 -0.000000 -0.000000 
					CHANNELS 3 Zrotation Yrotation Xrotation
					JOINT RightHand
					{
						OFFSET -3.444170 -0.000000 -0.000000 
						CHANNELS 3 Zrotation Yrotation Xrotation
						JOINT RightHandIndex1
						{
							OFFSET -0.622530 -0.000000 -0.000000 
							CHANNELS 3 Zrotation Yrotation Xrotation
							End Site
							{
								OFFSET 0.000000 0.000000 0.000000 
							}
						}
					}
				}
			}
		}
	}
}
MOTION
Frames: 10
Frame Time: 0.041667
16.311435 17.889797 -11.313041 2.887782 -82.407657 1.668660 -16.405745 -5.767603 -10.496965 0.009205 7.448529 22.274506 1.163003 -6.273061 -6.280875 1.283200 -7.178400 -20.245100 23.362828 4.908133 -11.344788 -2.348003 -9.961575 30.347142 -0.065017 -2.346748 -9.376022 -0.044700 -1.364700 3.752900 1.320931 -0.632657 0.277704 1.005563 -0.415570 -2.431821 6.287726 1.946052 16.313516 4.540200 0.562700 12.123400 -86.450242 -18.926192 69.892930 150.673586 -41.415200 -109.843499 0.376409 -0.829555 -20.610998 -7.125000 0.000000 0.000000 83.829356 -4.670915 19.898931 -16.825079 24.926601 -3.984394 0.393916 -0.101431 4.500793 7.125000 0.000000 0.000000 
16.300218 17.888895 -11.323558 2.659883 -82.510244 1.925186 -16.344681 -5.849634 -10.429139 -0.001197 7.432700 22.231474 1.136012 -6.049716 -6.298804 1.272400 -7.149400 -20.158700 23.436526 5.068377 -11.281762 -2.344603 -9.961416 30.341080 -0.051906 -2.430331 -9.468183 -0.043700 -1.349600 3.711300 1.319513 -0.595033 0.243214 1.019529 -0.391439 -2.479690 6.090000 1.513213 16.715979 4.381600 0.348300 12.345400 -85.842430 -17.837481 68.515590 149.926105 -42.025058 -109.455273 0.394944 -0.844829 -20.148859 -7.125000 0.000000 0.000000 83.876422 -4.766211 19.728884 -16.813019 24.911221 -3.978544 0.393091 -0.106301 4.370838 7.125000 0.000000 0.000000 
16.278985 17.885690 -11.317348 3.890974 -82.760687 0.726676 -16.569151 -5.808123 -10.299232 -0.009872 7.422624 22.200025 1.110852 -5.819824 -6.452130 1.262200 -7.121700 -20.076300 23.204036 4.992121 -11.248758 -2.356716 -9.976793 30.392543 -0.118646 -2.144316 -9.542805 -0.037700 -1.253100 3.445400 1.294240 -0.465238 0.281099 1.001453 -0.319553 -2.281090 5.870255 1.156703 17.056756 4.248800 0.150600 12.497800 -85.557902 -16.823266 67.367312 149.032119 -42.793284 -108.939828 0.396572 -0.861657 -19.259897 -7.125000 0.000000 0.000000 84.063139 -4.314089 17.933286 -16.263424 24.178534 -3.723099 0.383678 -0.148708 5.889040 7.125000 0.000000 0.000000 
16.272475 17.884689 -11.322155 4.483510 -82.802086 0.136717 -16.628427 -5.634161 -10.344926 -0.006167 7.424750 22.202674 1.132640 -5.959232 -6.503372 1.291800 -7.201400 -20.313500 23.143903 5.127416 -11.178434 -2.365240 -9.990084 30.438187 -0.121437 -2.148548 -9.607753 -0.044200 -1.356300 3.729600 1.330315 -0.450930 0.315877 1.123114 -0.310315 -2.193055 5.926888 0.860941 17.452280 4.306600 -0.027500 12.657100 -85.501952 -15.774074 66.151589 147.981732 -43.682521 -108.307848 0.389368 -0.882296 -18.002592 -7.125000 0.000000 0.000000 83.941244 -4.133213 17.543181 -16.173356 24.055485 -3.680321 0.384704 -0.153393 6.136914 7.125000 0.000000 0.000000 
16.281389 17.882686 -11.335977 4.714122 -82.695656 -0.135675 -16.584095 -5.453990 -10.459648 -0.001358 7.419794 22.189335 1.172267 -6.295478 -6.407124 1.305600 -7.238500 -20.423900 23.188632 5.286786 -11.166147 -2.375178 -10.008578 30.499032 -0.090035 -2.305670 -9.658170 -0.046500 -1.392000 3.828000 1.436735 -0.569368 0.278541 1.450929 -0.364809 -2.411003 5.966988 0.647435 18.095003 4.384500 -0.187900 12.966900 -85.445617 -14.627292 64.705522 146.899803 -44.542003 -107.657642 0.394043 -0.902561 -17.131886 -7.125000 0.000000 0.000000 83.633086 -4.132807 17.764414 -16.320499 24.244071 -3.743947 0.387138 -0.142823 5.752198 7.125000 0.000000 0.000000 
16.275680 17.879180 -11.338881 5.014981 -82.760461 -0.412530 -16.604891 -5.206497 -10.558674 0.004336 7.419552 22.190716 1.199259 -6.484822 -6.427353 1.317300 -7.269400 -20.515900 23.147466 5.141153 -11.278856 -2.390801 -10.031776 30.572857 -0.121714 -2.159605 -9.652251 -0.037300 -1.247400 3.429800 1.502918 -0.659565 0.221233 1.641590 -0.401861 -2.543332 5.836976 0.517183 18.782908 4.363000 -0.316800 13.279200 -85.218482 -13.422460 63.161925 145.761109 -45.417589 -106.957723 0.395684 -0.922525 -16.672458 -7.125000 0.000000 0.000000 83.578032 -3.877262 16.836312 -16.096650 23.936922 -3.640130 0.378721 -0.162704 6.503291 7.125000 0.000000 0.000000 
16.255348 17.874974 -11.333473 5.753251 -83.027095 -1.139528 -16.737412 -4.939961 -10.536153 0.009488 7.425461 22.208044 1.204117 -6.456635 -6.578314 1.299300 -7.221500 -20.373400 23.011857 4.995070 -11.282645 -2.410067 -10.056666 30.656673 -0.196147 -1.832775 -9.709215 -0.034600 -1.200500 3.300600 1.463826 -0.639914 0.201688 1.533253 -0.384262 -2.524678 5.762084 0.322006 19.200995 4.321100 -0.443100 13.413900 -84.818053 -12.217708 61.659915 144.492541 -46.364169 -106.154670 0.391612 -0.944778 -16.360591 -7.125000 0.000000 0.000000 83.627840 -3.767899 16.298400 -15.924253 23.704185 -3.562447 0.376793 -0.171942 6.880664 7.125000 0.000000 0.000000 
16.238522 17.871769 -11.334775 7.469454 -83.265026 -2.838455 -16.958176 -4.800186 -10.500435 0.014344 7.437940 22.240598 1.197630 -6.383682 -6.690206 1.266600 -7.133600 -20.111700 22.785434 4.952466 -11.274800 -2.429707 -10.080551 30.743172 -0.249044 -1.604310 -9.765704 -0.030700 -1.131700 3.111400 1.389926 -0.556385 0.172058 1.433220 -0.330736 -2.554046 5.726093 -0.030543 19.614567 4.280000 -0.637100 13.548600 -84.370799 -11.007115 60.254056 143.082277 -47.359695 -105.254838 0.393044 -0.968324 -16.165860 -7.125000 0.000000 0.000000 83.716640 -3.830157 16.041582 -15.924517 23.705565 -3.562251 0.378005 -0.169270 6.884463 7.125000 0.000000 0.000000 
16.234916 17.870667 -11.349398 8.273230 -83.295840 -3.636382 -16.987318 -4.632642 -10.589339 0.025568 7.450832 22.275459 1.235883 -6.661503 -6.721008 1.263600 -7.125400 -20.087300 22.737106 4.938499 -11.331935 -2.446062 -10.102196 30.819734 -0.262591 -1.533404 -9.737444 -0.031000 -1.136200 3.123800 1.358822 -0.579401 0.114296 1.427885 -0.331738 -2.719251 5.716739 -0.342674 20.226146 4.286400 -0.832100 13.820200 -83.936469 -9.787799 58.892985 141.498873 -48.421176 -104.227186 0.391667 -0.994610 -15.801801 -7.125000 0.000000 0.000000 83.866557 -3.749663 15.632043 -15.892644 23.657970 -3.546788 0.375705 -0.173897 7.025821 7.125000 0.000000 0.000000 
16.252143 17.871168 -11.378143 7.467052 -83.013030 -2.853075 -16.742453 -4.445533 -10.844330 0.039224 7.457127 22.293109 1.301245 -7.222009 -6.536988 1.275100 -7.156600 -20.180200 22.988573 5.334498 -11.341554 -2.459026 -10.130630 30.913309 -0.155939 -2.033763 -9.772608 -0.048100 -1.415000 3.891600 1.352876 -0.729759 0.019964 1.434966 -0.398738 -3.130726 5.748948 -0.715539 20.796895 4.297600 -1.044000 14.098700 -83.481483 -8.692381 57.512676 139.709862 -49.537270 -103.059432 0.395665 -1.022056 -15.456752 -7.125000 0.000000 0.000000 83.951598 -3.893482 16.110744 -16.107565 23.935674 -3.640697 0.381094 -0.155966 6.172530 7.125000 0.000000 0.000000 
